<?xml version="1.0" encoding="UTF-8" standalone="no"?>
<svg
   xmlns:dc="http://purl.org/dc/elements/1.1/"
   xmlns:cc="http://creativecommons.org/ns#"
   xmlns:rdf="http://www.w3.org/1999/02/22-rdf-syntax-ns#"
   xmlns:svg="http://www.w3.org/2000/svg"
   xmlns="http://www.w3.org/2000/svg"
   xmlns:sodipodi="http://sodipodi.sourceforge.net/DTD/sodipodi-0.dtd"
   xmlns:inkscape="http://www.inkscape.org/namespaces/inkscape"
   version="1.0"
   width="1178.0809"
   height="203.23357"
   overflow="scroll"
   id="svg2"
   inkscape:version="0.91 r13725"
   sodipodi:docname="LaTeX_UNISC_logo.svg"
   style="overflow:scroll"
   inkscape:export-filename="/home/eduardo/Downloads/LaTeX_UNISC_logo.png"
   inkscape:export-xdpi="90"
   inkscape:export-ydpi="90">
  <metadata
     id="metadata22">
    <rdf:RDF>
      <cc:Work
         rdf:about="">
        <dc:format>image/svg+xml</dc:format>
        <dc:type
           rdf:resource="http://purl.org/dc/dcmitype/StillImage" />
        <dc:title>LaTeX logo</dc:title>
      </cc:Work>
    </rdf:RDF>
  </metadata>
  <defs
     id="defs20" />
  <sodipodi:namedview
     pagecolor="#ffffff"
     bordercolor="#666666"
     borderopacity="1"
     objecttolerance="10"
     gridtolerance="10"
     guidetolerance="10"
     inkscape:pageopacity="0"
     inkscape:pageshadow="2"
     inkscape:window-width="1920"
     inkscape:window-height="1032"
     id="namedview18"
     showgrid="false"
     inkscape:snap-global="false"
     fit-margin-top="20"
     fit-margin-left="20"
     fit-margin-bottom="20"
     fit-margin-right="20"
     inkscape:zoom="0.70710678"
     inkscape:cx="731.10065"
     inkscape:cy="-32.782502"
     inkscape:window-x="0"
     inkscape:window-y="24"
     inkscape:window-maximized="1"
     inkscape:current-layer="svg2" />
  <title
     id="title4">LaTeX logo</title>
  <g
     transform="matrix(19.096442,0,0,17.704292,20,20)"
     id="g6"
     style="fill:#000000">
    <path
       transform="translate(0,0.17)"
       d="m 5.46,4.23 c 0,0 -0.25,0 -0.25,0 -0.1,1.02 -0.24,2.26 -2,2.26 0,0 -0.81,0 -0.81,0 -0.47,0 -0.49,-0.07 -0.49,-0.4 0,0 0,-5.31 0,-5.31 0,-0.34 0,-0.48 0.94,-0.48 0,0 0.33,0 0.33,0 0,0 0,-0.3 0,-0.3 C 2.82,0.03 1.92,0.03 1.51,0.03 1.12,0.03 0.34,0.03 0,0 c 0,0 0,0.3 0,0.3 0,0 0.23,0 0.23,0 0.77,0 0.79,0.11 0.79,0.47 0,0 0,5.25 0,5.25 0,0.36 -0.02,0.47 -0.79,0.47 0,0 -0.23,0 -0.23,0 0,0 0,0.31 0,0.31 0,0 5.19,0 5.19,0 0,0 0.27,-2.57 0.27,-2.57 z"
       id="path8"
       inkscape:connector-curvature="0" />
    <path
       transform="translate(2.48,0)"
       d="M 2.81,0.16 C 2.77,0.04 2.75,0 2.62,0 2.49,0 2.46,0.04 2.42,0.16 2.42,0.16 0.81,4.24 0.81,4.24 0.74,4.41 0.62,4.72 0,4.72 c 0,0 0,0.25 0,0.25 0,0 1.55,0 1.55,0 0,0 0,-0.25 0,-0.25 -0.31,0 -0.5,-0.14 -0.5,-0.34 0,-0.05 0.01,-0.07 0.03,-0.14 0,0 0.34,-0.86 0.34,-0.86 0,0 1.98,0 1.98,0 0,0 0.4,1.02 0.4,1.02 0.02,0.04 0.04,0.09 0.04,0.12 0,0.2 -0.38,0.2 -0.57,0.2 0,0 0,0.25 0,0.25 0,0 1.97,0 1.97,0 0,0 0,-0.25 0,-0.25 0,0 -0.14,0 -0.14,0 -0.47,0 -0.52,-0.07 -0.59,-0.27 0,0 -1.7,-4.29 -1.7,-4.29 z m -0.4,0.71 c 0,0 0.89,2.26 0.89,2.26 0,0 -1.78,0 -1.78,0 0,0 0.89,-2.26 0.89,-2.26 z"
       id="path10"
       inkscape:connector-curvature="0" />
    <path
       transform="translate(7.03,0.23)"
       d="M 6.27,0 C 6.27,0 0.18,0 0.18,0 0.18,0 0,2.24 0,2.24 c 0,0 0.24,0 0.24,0 0.14,-1.61 0.29,-1.94 1.8,-1.94 0.18,0 0.44,0 0.54,0.02 0.21,0.04 0.21,0.15 0.21,0.38 0,0 0,5.25 0,5.25 0,0.34 0,0.48 -1.05,0.48 0,0 -0.4,0 -0.4,0 0,0 0,0.31 0,0.31 0.41,-0.03 1.42,-0.03 1.88,-0.03 0.46,0 1.49,0 1.9,0.03 0,0 0,-0.31 0,-0.31 0,0 -0.4,0 -0.4,0 -1.05,0 -1.05,-0.14 -1.05,-0.48 0,0 0,-5.25 0,-5.25 0,-0.2 0,-0.34 0.18,-0.38 C 3.96,0.3 4.23,0.3 4.42,0.3 c 1.5,0 1.65,0.33 1.79,1.94 0,0 0.25,0 0.25,0 C 6.46,2.24 6.27,0 6.27,0 Z"
       id="path12"
       inkscape:connector-curvature="0" />
    <path
       transform="translate(12.5,2.45)"
       d="m 6.16,4.2 c 0,0 -0.25,0 -0.25,0 -0.25,1.53 -0.48,2.26 -2.19,2.26 0,0 -1.32,0 -1.32,0 -0.47,0 -0.49,-0.07 -0.49,-0.4 0,0 0,-2.66 0,-2.66 0,0 0.89,0 0.89,0 0.97,0 1.08,0.32 1.08,1.17 0,0 0.25,0 0.25,0 0,0 0,-2.64 0,-2.64 0,0 -0.25,0 -0.25,0 0,0.85 -0.11,1.16 -1.08,1.16 0,0 -0.89,0 -0.89,0 0,0 0,-2.39 0,-2.39 0,-0.33 0.02,-0.4 0.49,-0.4 0,0 1.28,0 1.28,0 1.53,0 1.79,0.55 1.95,1.94 0,0 0.25,0 0.25,0 C 5.88,2.24 5.6,0 5.6,0 5.6,0 0,0 0,0 c 0,0 0,0.3 0,0.3 0,0 0.23,0 0.23,0 0.77,0 0.79,0.11 0.79,0.47 0,0 0,5.22 0,5.22 0,0.36 -0.02,0.47 -0.79,0.47 0,0 -0.23,0 -0.23,0 0,0 0,0.31 0,0.31 0,0 5.74,0 5.74,0 0,0 0.42,-2.57 0.42,-2.57 z"
       id="path14"
       inkscape:connector-curvature="0" />
    <path
       transform="translate(17.91,0.17)"
       d="m 3.76,2.95 c 0,0 1.37,-2 1.37,-2 0.21,-0.32 0.55,-0.64 1.44,-0.65 0,0 0,-0.3 0,-0.3 0,0 -2.38,0 -2.38,0 0,0 0,0.3 0,0.3 0.4,0.01 0.62,0.23 0.62,0.46 0,0.1 -0.02,0.12 -0.09,0.23 0,0 -1.14,1.68 -1.14,1.68 C 3.58,2.67 2.3,0.75 2.3,0.75 2.28,0.72 2.23,0.64 2.23,0.6 c 0,-0.12 0.22,-0.29 0.64,-0.3 0,0 0,-0.3 0,-0.3 C 2.53,0.03 1.8,0.03 1.42,0.03 1.11,0.03 0.49,0.02 0.12,0 c 0,0 0,0.3 0,0.3 0,0 0.19,0 0.19,0 0.55,0 0.74,0.07 0.93,0.35 0,0 1.83,2.77 1.83,2.77 0,0 -1.63,2.41 -1.63,2.41 C 1.3,6.03 1,6.49 0,6.49 c 0,0 0,0.31 0,0.31 0,0 2.38,0 2.38,0 0,0 0,-0.31 0,-0.31 C 1.92,6.48 1.75,6.21 1.75,6.03 c 0,-0.09 0.03,-0.13 0.1,-0.24 0,0 1.41,-2.09 1.41,-2.09 0,0 1.58,2.38 1.58,2.38 0.02,0.04 0.05,0.08 0.05,0.11 0,0.12 -0.22,0.29 -0.65,0.3 0,0 0,0.31 0,0.31 0.35,-0.03 1.08,-0.03 1.45,-0.03 0.42,0 0.88,0.01 1.3,0.03 0,0 0,-0.31 0,-0.31 0,0 -0.19,0 -0.19,0 -0.52,0 -0.73,-0.05 -0.94,-0.36 0,0 -2.1,-3.18 -2.1,-3.18 z"
       id="path16"
       inkscape:connector-curvature="0" />
  </g>
  <path
     style="fill:#01458e;fill-opacity:1"
     d="m 666.65928,169.27877 c -1.00102,-1.10612 -1.31686,-3.02723 -1.31686,-8.00981 l 0,-6.55471 2.15998,0.25177 c 2.11567,0.24662 2.16058,0.36558 2.18818,5.79689 0.0269,5.29017 0.12659,5.57998 2.1688,6.30354 3.51412,1.24505 4.6228,-0.37957 4.6228,-6.77405 0,-5.30682 0.0603,-5.47245 1.98925,-5.47245 1.96479,0 1.98925,0.0826 1.98925,6.71831 0,6.04048 -0.17844,6.84328 -1.76845,7.95697 -2.58843,1.81299 -10.32222,1.67386 -12.03295,-0.21646 z m 16.18849,-6.54343 0,-7.99856 4.05695,0.24051 4.05692,0.24051 2.50758,5.96773 2.50756,5.96773 0.23238,-6.16665 0.2324,-6.16666 2.35361,0 2.35364,0 0,7.99854 0,7.99857 -4.12583,-0.24052 -4.12581,-0.24049 -2.43869,-5.90331 -2.43868,-5.9033 -0.23239,6.10223 -0.2324,6.10223 -2.35362,0 -2.35362,0 0,-7.99856 z m 20.68814,0.0415 c 0,-7.95698 0,-7.95698 1.98924,-7.95698 1.98925,0 1.98925,0 1.98925,7.95698 0,7.95697 0,7.95697 -1.98925,7.95697 -1.98924,0 -1.98924,0 -1.98924,-7.95697 z m 10.89156,7.3602 c -0.59648,-1.04049 -4.52599,-13.61658 -4.52599,-14.48513 0,-0.45763 0.99944,-0.83205 2.22098,-0.83205 2.0765,0 2.3214,0.36664 3.76513,5.63694 0.84928,3.10033 1.76085,5.77088 2.02569,5.93455 0.26482,0.16374 1.31904,-2.37296 2.34267,-5.63695 1.7591,-5.60907 1.98909,-5.93454 4.19331,-5.93454 1.53531,0 2.20396,0.33983 1.957,0.99462 -0.20633,0.54704 -1.39263,4.12767 -2.63623,7.95698 l -2.2611,6.96235 -3.36967,0 c -1.85333,0 -3.52364,-0.26856 -3.71179,-0.59677 z m 13.77507,-7.3602 0,-7.95698 5.96773,0 c 5.43725,0 5.96773,0.14146 5.96773,1.59139 0,1.37922 -0.53048,1.59139 -3.97848,1.59139 -3.44803,0 -3.9785,0.21219 -3.9785,1.59141 0,1.37921 0.53047,1.59139 3.9785,1.59139 3.448,0 3.97848,0.21219 3.97848,1.5914 0,1.38227 -0.53048,1.59139 -4.03684,1.59139 -3.41498,0 -3.99604,0.2145 -3.77212,1.39248 0.2046,1.07618 1.21185,1.44708 4.4347,1.63296 3.51987,0.20303 4.16996,0.48212 4.16996,1.79032 0,1.40681 -0.5874,1.54982 -6.36559,1.54982 l -6.36557,0 0,-7.95697 z m 14.90541,4.57526 c -0.21645,-1.85995 -0.34662,-5.35107 -0.28928,-7.75805 l 0.10435,-4.37634 5.75645,-0.23355 c 7.54825,-0.30622 8.96396,0.47564 8.96396,4.95059 0,2.56755 -0.36141,3.60675 -1.39248,4.004 -1.32618,0.51094 -1.32618,0.57372 0,1.31823 0.83487,0.46867 1.39248,1.72178 1.39248,3.12928 0,1.95568 -0.32283,2.34755 -1.93392,2.34755 -1.39972,0 -2.00414,-0.49451 -2.18817,-1.79032 -0.20423,-1.43809 -0.84132,-1.83891 -3.23812,-2.03728 -2.7354,-0.22639 -2.98386,-0.0773 -2.98386,1.79032 0,1.61678 -0.39195,2.03728 -1.89891,2.03728 -1.64179,0 -1.95218,-0.45786 -2.29243,-3.38171 z m 10.15906,-6.56451 c 0,-1.26457 -0.61279,-1.64213 -2.98386,-1.83836 -2.75181,-0.22775 -2.98387,-0.0848 -2.98387,1.83836 0,1.92313 0.23206,2.0661 2.98387,1.83834 2.37107,-0.19624 2.98386,-0.57376 2.98386,-1.83834 z m 7.20639,8.17778 c -0.68126,-0.97265 -1.23866,-2.04684 -1.23866,-2.38709 0,-0.9112 4.5967,-0.75387 5.17205,0.17704 0.27046,0.43763 1.7501,0.79571 3.28808,0.79571 2.23475,0 2.74252,-0.27967 2.52846,-1.39248 -0.19927,-1.03582 -1.36232,-1.52637 -4.54094,-1.91528 -4.58349,-0.56077 -5.62061,-1.4419 -5.63978,-4.79132 -0.021,-3.69094 1.97195,-4.84315 7.74199,-4.47572 3.28404,0.2091 5.34423,0.7321 5.81498,1.47619 1.34047,2.11884 0.8086,3.14163 -1.63367,3.14163 -1.31291,0 -2.38709,-0.38075 -2.38709,-0.84611 0,-0.47528 -1.13343,-0.73684 -2.58602,-0.59678 -4.33152,0.41764 -3.30496,2.54868 1.51087,3.13648 5.29991,0.6469 5.84933,1.04742 5.84933,4.26426 0,4.04665 -1.65864,5.18191 -7.57085,5.18191 -4.33726,0 -5.24912,-0.25561 -6.30875,-1.76844 z m 16.2667,-6.18853 0,-7.95698 2.38707,0 2.3871,0 0,7.95698 0,7.95697 -2.3871,0 -2.38707,0 0,-7.95697 z m 7.16126,0 0,-7.95698 6.27743,0 c 8.57564,0 10.03436,1.15673 10.03436,7.95698 0,6.80024 -1.45872,7.95697 -10.03436,7.95697 l -6.27743,0 0,-7.95697 z m 11.09368,3.63616 c 0.51945,-0.62591 0.83184,-2.50574 0.69421,-4.17741 -0.24383,-2.96115 -0.33733,-3.0457 -3.63199,-3.28408 l -3.38172,-0.24466 0,4.42207 0,4.42211 2.68753,0 c 1.47813,0 3.11253,-0.51211 3.63197,-1.13803 z m 8.41521,-3.33323 c 1.52386,-4.20974 2.77064,-7.79038 2.77064,-7.95698 0,-0.16657 1.58178,-0.30293 3.51504,-0.30293 l 3.51501,0 2.45272,7.36217 c 1.34897,4.0492 2.45269,7.62984 2.45269,7.95697 0,0.32714 -0.87102,0.59481 -1.93561,0.59481 -1.23679,0 -2.11799,-0.57455 -2.44072,-1.59139 -0.40708,-1.28261 -1.20391,-1.59139 -4.1066,-1.59139 -2.93232,0 -3.67883,0.29568 -4.01767,1.59139 -0.29402,1.12432 -1.08535,1.59139 -2.69617,1.59139 l -2.27998,0 2.77065,-7.65404 z m 7.91458,-0.50186 c -1.01866,-4.76883 -1.66496,-5.00551 -2.99658,-1.09735 l -1.25507,3.68337 2.40203,0 c 2.29282,0 2.3769,-0.11758 1.84962,-2.58602 z m 8.38292,0.28059 0,-8.03864 6.00391,0 c 5.38667,0 6.2141,0.2102 8.04859,2.0447 1.83974,1.83971 2.01041,2.5189 1.70252,6.77528 -0.18819,2.60182 -0.78425,5.1728 -1.32458,5.71335 -0.57173,0.57193 -3.79336,1.10006 -7.70643,1.26336 l -6.72401,0.28056 0,-8.03861 z m 10.19677,4.0047 c 0.6761,-0.42873 0.9576,-1.90232 0.79571,-4.16522 l -0.25056,-3.50178 -3.38171,-0.24469 -3.38172,-0.24466 0,4.42207 0,4.42211 2.58602,-0.0123 c 1.42232,-0.007 3.05682,-0.31073 3.63226,-0.67564 z m 7.30858,-4.08636 0,-7.95698 6.36558,0 c 5.83511,0 6.36558,0.13261 6.36558,1.59139 0,1.37922 -0.53047,1.59139 -3.97849,1.59139 -3.448,0 -3.97848,0.21219 -3.97848,1.59141 0,1.37921 0.53048,1.59139 3.97848,1.59139 3.44802,0 3.97849,0.21219 3.97849,1.5914 0,1.3792 -0.53047,1.59139 -3.97849,1.59139 -3.448,0 -3.97848,0.21219 -3.97848,1.59139 0,1.39851 0.53048,1.59141 4.37633,1.59141 3.84587,0 4.37634,0.19288 4.37634,1.59139 0,1.46657 -0.53047,1.59139 -6.76343,1.59139 l -6.76343,0 0,-7.95697 z m 22.27953,0 0,-8.12029 6.8276,0.28058 c 8.19277,0.33668 9.08636,1.10767 9.08636,7.83971 0,6.73202 -0.89359,7.50302 -9.08636,7.83971 l -6.8276,0.28056 0,-8.12027 z m 11.15945,3.14601 c 0.47926,-0.89548 0.7604,-2.77533 0.62477,-4.17742 -0.23065,-2.38448 -0.46515,-2.56504 -3.62831,-2.79392 l -3.38172,-0.24466 0,4.42207 0,4.42211 2.75695,0 c 1.96334,0 3.00778,-0.46869 3.62831,-1.62818 z m 7.1416,-3.11383 0,-7.98916 6.36558,0 c 5.83512,0 6.36559,0.13261 6.36559,1.59139 0,1.37922 -0.53047,1.59139 -3.9785,1.59139 -3.44801,0 -3.97848,0.21219 -3.97848,1.59141 0,1.38226 0.53047,1.59139 4.03684,1.59139 3.41486,0 3.9961,0.21454 3.77239,1.39247 -0.19924,1.04921 -1.19435,1.45225 -4.03681,1.63498 -3.12342,0.2008 -3.77242,0.50881 -3.77242,1.79032 0,1.34813 0.5721,1.54782 4.43468,1.54782 3.79441,0 4.39627,0.20103 4.16861,1.39246 -0.22329,1.16861 -1.31992,1.42962 -6.82176,1.62358 l -6.55572,0.23108 0,-7.98913 z m 22.72251,6.15635 c -1.7541,-2.50435 -1.56254,-3.00575 1.14842,-3.00575 1.3129,0 2.38709,0.37967 2.38709,0.84372 0,0.48843 1.25659,0.73974 2.98387,0.59678 4.7074,-0.38959 3.9523,-2.51585 -1.11304,-3.13411 -5.39089,-0.65799 -5.84931,-1.02564 -5.84931,-4.69094 0,-2.25826 0.42074,-3.333 1.53909,-3.93152 2.33295,-1.24856 8.99853,-0.99744 11.01502,0.41497 2.56786,1.79858 2.26393,3.53553 -0.61865,3.53553 -1.3129,0 -2.38709,-0.35807 -2.38709,-0.7957 0,-0.43763 -1.27948,-0.79571 -2.84328,-0.79571 -2.27948,0 -2.79017,0.27613 -2.57542,1.39248 0.19926,1.03583 1.3623,1.52636 4.54094,1.91528 4.58729,0.56123 5.62064,1.44129 5.63976,4.80303 0.0176,3.10761 -2.62676,4.62038 -8.07672,4.62038 -3.80192,0 -4.75614,-0.29142 -5.79068,-1.76844 z m 17.02783,-4.79607 c 3.4088,-9.93819 2.98568,-9.34944 6.71909,-9.34944 l 3.33151,0 2.34507,6.96235 c 1.28977,3.82929 2.46403,7.40993 2.60945,7.95698 0.16303,0.61314 -0.54951,0.99462 -1.85771,0.99462 -1.45291,0 -2.25331,-0.50183 -2.53823,-1.59139 -0.33799,-1.29246 -1.08536,-1.59139 -3.9785,-1.59139 -2.89316,0 -3.64051,0.29893 -3.97848,1.59139 -0.29205,1.11679 -1.08536,1.59139 -2.66001,1.59139 l -2.24383,0 2.25164,-6.56451 z m 8.47111,-0.27285 c -0.26751,-0.6971 -0.70269,-2.12935 -0.96708,-3.18278 -0.61499,-2.45029 -1.59281,-2.45029 -2.2078,0 -0.26439,1.05343 -0.69958,2.48568 -0.96708,3.18278 -0.38276,0.99747 0.0584,1.26748 2.07098,1.26748 2.01259,0 2.45375,-0.27001 2.07098,-1.26748 z m 7.47739,-1.16121 0,-7.99856 4.12582,0.24051 4.12583,0.24052 2.43867,5.9033 2.43869,5.9033 0.2324,-6.10223 0.23239,-6.10222 2.35362,0 2.35362,0 0,7.99854 0,7.99857 -4.05694,-0.24052 -4.05692,-0.24049 -2.50759,-5.96773 -2.50756,-5.96773 -0.23238,6.16666 -0.23241,6.16665 -2.3536,0 -2.35364,0 0,-7.99857 z m 23.87093,2.03084 0,-5.96773 -2.38709,0 c -2.01577,0 -2.3871,-0.30945 -2.3871,-1.98924 0,-1.97566 0.0494,-1.98925 7.21663,-1.98925 7.02878,0 7.20999,0.0467 6.96235,1.79032 -0.19487,1.37217 -0.85824,1.84855 -2.84029,2.03966 l -2.58602,0.24933 0,5.91732 c 0,5.78134 -0.0458,5.91732 -1.98923,5.91732 -1.94504,0 -1.98925,-0.13261 -1.98925,-5.96773 z m 10.30952,-0.59678 c 3.41599,-9.95921 2.97138,-9.34944 6.81749,-9.34944 l 3.42989,0 2.45271,7.36217 c 1.34899,4.0492 2.45271,7.62984 2.45271,7.95697 0,0.32714 -0.92868,0.59481 -2.06373,0.59481 -1.39457,0 -2.19868,-0.51603 -2.47989,-1.59139 -0.33508,-1.28131 -1.08536,-1.59139 -3.85039,-1.59139 -2.73537,0 -3.537,0.32382 -3.9393,1.59139 -0.35048,1.10427 -1.20391,1.59139 -2.7881,1.59139 l -2.28302,0 2.25163,-6.56451 z m 8.78278,0.39786 c -0.002,-0.32824 -0.40993,-2.02903 -0.90552,-3.77957 l -0.90108,-3.18279 -1.0232,2.78495 c -1.49302,4.06379 -1.3673,4.77418 0.84499,4.77418 1.09409,0 1.98725,-0.26855 1.98481,-0.59677 z m 16.32792,5.08003 c -1.0822,-0.79133 -1.58092,-2.39806 -1.83511,-5.91228 -0.31551,-4.3618 -0.15261,-5.0222 1.69564,-6.87035 1.69774,-1.69778 2.78374,-2.0447 6.40044,-2.0447 4.67106,0 6.85636,1.28609 6.85636,4.03532 0,1.88145 -3.5657,2.16647 -4.2662,0.34102 -0.6195,-1.61407 -4.96996,-1.56346 -5.59486,0.065 -0.8102,2.11136 -0.5392,6.32383 0.4718,7.33491 1.3079,1.30784 3.4223,1.19845 4.61506,-0.23872 0.5447,-0.65644 1.8418,-1.19354 2.8824,-1.19354 1.4803,0 1.8918,0.42665 1.8918,1.96125 0,1.12465 -0.6566,2.3126 -1.5391,2.78494 -2.2183,1.1872 -9.83156,1.0143 -11.57823,-0.26293 z m 14.70863,-6.87035 0,-7.95698 6.3088,0 c 7.3771,0 8.8096,0.90106 8.8096,5.54159 0,2.16117 -0.4029,3.196 -1.3926,3.5773 -1.3261,0.51094 -1.3261,0.57372 0,1.31823 0.8349,0.46867 1.3926,1.72178 1.3926,3.12928 0,1.94521 -0.3262,2.34755 -1.9031,2.34755 -1.3662,0 -2.0438,-0.56107 -2.4023,-1.98924 -0.4129,-1.64528 -0.9781,-1.98925 -3.2689,-1.98925 -2.424,0 -2.7699,0.24837 -2.7699,1.98925 0,1.67981 -0.3713,1.98924 -2.3871,1.98924 l -2.3871,0 0,-7.95697 z m 10.6594,-1.26536 c 0.7454,-1.94224 -0.1488,-2.71313 -3.1471,-2.71313 -2.3901,0 -2.7381,0.25278 -2.7381,1.98924 0,1.73099 0.3505,1.98925 2.6999,1.98925 1.7339,0 2.8734,-0.45272 3.1853,-1.26536 z m 8.1435,7.53781 c -0.9295,-1.327 -1.2975,-3.60754 -1.2975,-8.0409 l 0,-6.18853 2.3871,0 2.3871,0 0,5.9141 c 0,5.21528 0.1881,5.97379 1.5913,6.41921 0.8753,0.27781 2.3077,0.27781 3.1828,0 1.4034,-0.44542 1.5915,-1.20393 1.5915,-6.41921 0,-5.77791 0.046,-5.9141 1.9893,-5.9141 1.962,0 1.989,0.0896 1.977,6.56451 -0.011,3.61046 -0.3437,7.08871 -0.749,7.72938 -0.4947,0.78223 -2.5478,1.26724 -6.2495,1.47639 -5.0499,0.28536 -5.6217,0.15596 -6.8101,-1.54085 z m 15.4122,-0.0828 c 0,-1.08379 1.7598,-3.54559 4.5503,-6.36559 l 4.5504,-4.59833 -4.1526,0 c -3.622,0 -4.1525,-0.20329 -4.1525,-1.5914 0,-1.46659 0.5305,-1.59139 6.7634,-1.59139 6.5165,0 6.7635,0.0665 6.7635,1.82022 0,1.13132 -1.5057,3.30335 -3.9785,5.7389 -2.1881,2.15527 -3.9785,4.20067 -3.9785,4.54536 0,0.34467 1.7904,0.62668 3.9785,0.62668 3.4481,0 3.9785,0.21218 3.9785,1.5914 0,1.4735 -0.5304,1.59139 -7.1613,1.59139 -6.8683,0 -7.1612,-0.0723 -7.1612,-1.76724 z m 23.8709,-6.10807 0,-8.03864 5.8604,0 c 4.7973,0 6.2561,0.31128 8.0418,1.71582 2.0452,1.60879 2.1613,2.03058 1.86,6.76122 -0.1767,2.77495 -0.7697,5.49396 -1.3177,6.04223 -0.5881,0.58836 -3.7518,1.1118 -7.7205,1.27742 l -6.724,0.28056 0,-8.03861 z m 9.8811,4.20953 c 0.9104,-0.34937 1.2587,-1.56011 1.2587,-4.37634 l 0,-3.89335 -3.5807,0 -3.5806,0 0,4.37634 c 0,4.30487 0.038,4.37634 2.322,4.37634 1.2771,0 2.8884,-0.21735 3.5806,-0.48299 z m 9.2156,2.07439 c -1.2283,-1.22838 -1.5913,-2.65233 -1.5913,-6.24227 0,-5.84699 1.4598,-7.41024 7.3725,-7.89514 3.4005,-0.27887 4.5668,-0.0246 6.3532,1.38579 1.9468,1.53673 2.1883,2.24781 2.1883,6.44378 0,6.44043 -1.4696,7.89923 -7.9571,7.89923 -3.7133,0 -5.1279,-0.35364 -6.3656,-1.59139 z m 8.805,-2.41509 c 1.1117,-0.59497 1.5391,-1.67269 1.5391,-3.88108 0,-3.58644 -1.4175,-5.05874 -4.5272,-4.70218 -2.0719,0.2376 -2.2544,0.54293 -2.4837,4.15793 -0.3135,4.94259 1.6054,6.49456 5.4718,4.42533 z m 15.5207,2.75609 c -2.0228,-2.02272 -1.5385,-3.5238 1.1367,-3.5238 1.3129,0 2.3871,0.37967 2.3871,0.84372 0,0.48842 1.2565,0.73974 2.9839,0.59679 4.7074,-0.3896 3.9523,-2.51586 -1.113,-3.13412 -5.391,-0.65799 -5.8494,-1.02564 -5.8494,-4.69094 0,-3.7986 1.4301,-4.75521 7.109,-4.75521 2.9698,0 4.4497,0.41885 5.6222,1.59139 2.2251,2.22514 1.9857,3.1828 -0.7957,3.1828 -1.3129,0 -2.3871,-0.35807 -2.3871,-0.79571 0,-0.43762 -1.2533,-0.79569 -2.785,-0.79569 -2.2545,0 -2.7849,0.3031 -2.7849,1.5914 0,1.34336 0.5304,1.59139 3.4036,1.59139 6.1614,0 9.0336,4.27244 5.3491,7.95698 -2.0544,2.05443 -10.3331,2.28439 -12.2765,0.341 z m 17.5053,0 c -0.9389,-0.93891 -1.2504,-2.92099 -1.2504,-7.95698 0,-6.62323 0.025,-6.70658 1.9893,-6.70658 1.9269,0 1.9893,0.16974 1.9893,5.41074 0,5.79342 0.7741,7.32042 3.7117,7.32042 2.4789,0 3.4495,-2.22435 3.4495,-7.90467 0,-4.61781 0.085,-4.82649 1.9893,-4.82649 1.956,0 1.9893,0.10608 1.9893,6.36558 0,8.24959 -1.0746,9.54837 -7.9003,9.54837 -3.2275,0 -5.1122,-0.39488 -5.9677,-1.25039 z m 16.255,-6.70658 0,-7.95698 2.3871,0 2.3871,0 0,6.36558 0,6.36558 3.5806,0 c 3.0502,0 3.5806,0.23576 3.5806,1.5914 0,1.44994 -0.5304,1.59139 -5.9677,1.59139 l -5.9677,0 0,-7.95697 z m -615.67105,-23.72735 -1.79032,-0.25428 0,-17.45 0,-17.45 17.50535,0 17.50534,0 0,17.4734 0,17.47339 -15.71502,0.23088 c -8.64327,0.12695 -16.52069,0.11652 -17.50535,-0.0233 z m 171.67068,-0.0994 c -9.9997,-0.61522 -17.01628,-2.13386 -22.29028,-4.82446 -3.81402,-1.94578 -9.30934,-8.03071 -11.28397,-12.4947 -3.39914,-7.68434 -3.76537,-13.33156 -3.79469,-58.515276 l -0.0278,-42.76875 15.91395,0 15.91395,0 0,41.587616 c 0,38.75314 0.0992,41.77658 1.45556,44.36014 2.1509,4.09695 5.93918,5.6353 15.0778,6.12278 14.80463,0.78974 20.75245,-1.72203 22.41303,-9.46501 0.52351,-2.4411 0.83849,-18.690642 0.83849,-43.257658 l 0,-39.347868 15.51612,0 15.5161,0 0,44.789733 c 0,48.765803 -0.0836,49.827013 -4.57611,58.081173 -3.96659,7.28793 -11.66674,12.3066 -22.21643,14.47983 -6.94416,1.43048 -25.65637,2.03993 -38.45577,1.25245 z m 281.2802,-0.0877 c -14.08118,-0.80473 -19.80368,-2.64226 -25.43426,-8.16708 -2.91406,-2.85933 -4.70185,-5.48431 -5.83367,-8.56543 -1.5844,-4.31323 -3.34492,-14.35973 -3.34492,-19.08804 l 0,-2.32952 15.01478,0 15.01478,0 0.41384,3.67155 c 0.45425,4.03022 2.4821,7.32897 5.4397,8.84897 2.83486,1.45689 25.38632,1.35984 28.93892,-0.12447 3.4959,-1.46069 5.313,-5.02563 5.313,-10.42326 0,-9.164479 -1.0132,-9.634729 -24.88946,-11.551069 -23.0999,-1.85402 -27.99427,-2.94774 -34.50364,-7.710286 -6.51242,-4.764817 -9.91505,-14.797378 -9.93447,-29.291453 -0.0276,-20.678149 7.14921,-30.337389 24.54042,-33.028456 8.49835,-1.315005 47.72405,-0.574317 53.02835,1.001341 7.7955,2.315658 12.2441,5.446692 15.7144,11.060498 2.7427,4.436775 5.2399,18.075635 4.1236,22.522896 l -0.516,2.056118 -14.6341,0 -14.6341,0 0,-2.095851 c 0,-4.038714 -1.8278,-8.308109 -4.3169,-10.083664 -2.2387,-1.59686 -3.3935,-1.745195 -13.58636,-1.745195 -10.13247,0 -11.39718,0.160201 -13.98696,1.770781 -3.47553,2.161522 -4.71555,4.695641 -4.70017,9.605344 0.0278,8.824039 2.58642,10.121787 22.26783,11.29362 17.01356,1.013012 23.17316,1.855832 29.29946,4.009113 8.7217,3.065394 13.9403,8.537213 16.6587,17.466744 1.8755,6.16095 1.8411,24.859409 -0.058,31.193869 -2.5688,8.5707 -9.5036,14.62279 -20.4236,17.8237 -8.042,2.35731 -24.5421,3.04682 -44.97174,1.87927 z m 114.97827,0.0435 c -20.9621,-1.17834 -30.1727,-6.09642 -36.2409,-19.35133 -3.951,-8.63005 -4.6425,-14.69742 -4.641,-40.723946 0,-21.823219 0.1451,-24.388514 1.6762,-29.904697 4.4091,-15.884389 11.4046,-22.814296 27.0221,-26.768808 4.4816,-1.134771 9.2782,-1.375885 27.6997,-1.392418 20.937,-0.01875 22.6237,0.08823 27.9899,1.775449 4.3864,1.37921 6.7141,2.712888 10.0402,5.752807 6.6472,6.075186 9.2943,14.059659 9.3079,28.076033 l 0,6.183489 -15.715,-0.215757 -15.715,-0.21574 -0.4169,-4.144488 c -0.2392,-2.379473 -1.1169,-5.090397 -2.0607,-6.365582 -2.9762,-4.020961 -5.2134,-4.608186 -17.5555,-4.608186 -10.1992,0 -11.4956,0.159493 -13.5269,1.664564 -6.2352,4.620016 -6.9148,8.288341 -6.4825,34.994428 0.2741,16.929662 0.4211,18.481732 2.0401,21.541992 2.8528,5.39211 7.214,7.04688 18.5078,7.02274 7.5773,-0.0159 9.7801,-0.30704 12.8122,-1.69148 4.4427,-2.0285 7.0803,-6.67057 7.0803,-12.460969 l 0,-3.72727 15.6199,0 15.6199,0 -0.3954,10.542989 c -0.3077,8.20754 -0.7773,11.53836 -2.1196,15.03637 -3.5005,9.1225 -11.6482,15.28344 -23.4675,17.74519 -7.2757,1.51539 -22.8602,2.03423 -37.0853,1.23462 z m -528.34319,-17.50545 0,-17.50535 17.50535,0 17.50534,0 0,17.50535 0,17.50535 -17.50534,0 -17.50535,0 0,-17.50535 z m 41.37628,0 0,-17.50535 17.50534,0 17.50535,0 0,17.50535 0,17.50535 -17.50535,0 -17.50534,0 0,-17.50535 z m 167.0965,-42.182569 0,-58.892193 26.79372,0.209499 26.79371,0.209515 3.38575,9.150523 c 1.86217,5.032788 9.27435,25.08437 16.47153,44.559062 7.81359,21.142594 13.52693,35.497223 14.18068,35.628633 0.90115,0.18116 1.05337,-2.07176 0.86023,-12.731159 -0.12907,-7.12319 -0.48715,-27.363628 -0.7957,-44.978747 l -0.56103,-32.027504 15.70521,6.72e-4 15.70522,6.72e-4 -8e-4,58.881624 -7.9e-4,58.881622 -26.98913,0 -26.98911,0 -0.5557,-1.79032 c -1.20279,-3.87513 -31.59185,-86.225609 -32.33072,-87.612157 -0.43316,-0.812849 -1.08346,-1.170913 -1.44511,-0.795698 -0.36166,0.375198 -0.34575,15.720882 0.0354,34.101496 0.38109,18.380609 0.71017,38.521699 0.73127,44.757989 l 0.0377,11.33869 -15.5161,0 -15.51609,0 0,-58.892219 z m 128.90301,0.01038 0,-58.88163 15.91395,0 15.91396,0 0,58.88163 0,58.881609 -15.91396,0 -15.91395,0 0,-58.881609 z m -378.75207,0.795696 0,-17.505349 17.50535,0 17.50534,0 0,17.505349 0,17.505344 -17.50534,0 -17.50535,0 0,-17.505344 z m 41.37628,0 0,-17.505349 17.50535,0 17.50534,0 0,17.505349 0,17.505344 -17.50534,0 -17.50535,0 0,-17.505344 z m 41.37628,0 0,-17.505349 17.50534,0 17.50535,0 0,17.505349 0,17.505344 -17.50535,0 -17.50534,0 0,-17.505344 z m -82.75256,-41.774128 0,-17.903198 17.50535,0 17.50534,0 0,17.903198 0,17.903198 -17.50534,0 -17.50535,0 0,-17.903198 z m 41.37628,0 0,-17.903198 17.50535,0 17.50534,0 0,17.903198 0,17.903198 -17.50534,0 -17.50535,0 0,-17.903198 z m 41.37628,0.397848 0,-17.505348 17.50534,0 17.50535,0 0,17.505348 0,17.50535 -17.50535,0 -17.50534,0 0,-17.50535 z m 33.02146,-0.397848 0,-15.118255 -15.31719,-0.216112 -15.31718,-0.216094 0,15.550461 0,15.550462 15.31718,-0.216094 15.31719,-0.216113 0,-15.118255 z"
     id="path4215"
     inkscape:connector-curvature="0" />
</svg>
